<svg width="1440" height="572" viewBox="0 0 1440 572" fill="none" xmlns="http://www.w3.org/2000/svg">
<g opacity="0.1" clip-path="url(#clip0)">
<path d="M159.178 338.139C159.178 335.914 160.982 334.11 163.207 334.11C165.431 334.11 167.235 335.914 167.235 338.139C167.235 340.363 165.431 342.167 163.207 342.167C161.007 342.167 159.178 340.363 159.178 338.139Z" fill="url(#paint0_linear)"/>
<path d="M163.898 246.82H162.564V335.791H163.898V246.82Z" fill="url(#paint1_linear)"/>
<path d="M26.5126 133.901C26.5126 131.677 28.3167 129.873 30.541 129.873C32.7653 129.873 34.5694 131.677 34.5694 133.901C34.5694 136.125 32.7653 137.929 30.541 137.929C28.3167 137.929 26.5126 136.125 26.5126 133.901Z" fill="url(#paint2_linear)"/>
<path d="M31.2329 42.5822H29.8984V131.553H31.2329V42.5822Z" fill="url(#paint3_linear)"/>
<path d="M66.7472 154.34C66.7472 152.115 68.5513 150.311 70.7756 150.311C72.9999 150.311 74.804 152.115 74.804 154.34C74.804 156.564 72.9999 158.368 70.7756 158.368C68.5761 158.393 66.7472 156.589 66.7472 154.34Z" fill="url(#paint4_linear)"/>
<path d="M71.4676 63.0455H70.133V152.041H71.4676V63.0455Z" fill="url(#paint5_linear)"/>
<path d="M132.388 384.082C132.388 381.858 134.192 380.054 136.416 380.054C138.641 380.054 140.445 381.858 140.445 384.082C140.445 386.307 138.641 388.111 136.416 388.111C134.192 388.111 132.388 386.307 132.388 384.082Z" fill="url(#paint6_linear)"/>
<path d="M137.108 292.764H135.774V381.735H137.108V292.764Z" fill="url(#paint7_linear)"/>
<path d="M194.742 124.954C194.742 122.73 196.546 120.926 198.77 120.926C200.994 120.926 202.799 122.73 202.799 124.954C202.799 127.179 200.994 128.983 198.77 128.983C196.546 128.983 194.742 127.179 194.742 124.954Z" fill="url(#paint8_linear)"/>
<path d="M199.438 33.6603H198.103V122.631H199.438V33.6603Z" fill="url(#paint9_linear)"/>
<path d="M83.5529 121C83.5529 118.776 85.357 116.972 87.5813 116.972C89.8055 116.972 91.6097 118.776 91.6097 121C91.6097 123.224 89.8055 125.029 87.5813 125.029C85.357 125.029 83.5529 123.224 83.5529 121Z" fill="url(#paint10_linear)"/>
<path d="M88.2733 74.1916H86.9387V118.677H88.2733V74.1916Z" fill="url(#paint11_linear)"/>
<path d="M235.495 344.663C235.495 342.439 237.3 340.635 239.524 340.635C241.748 340.635 243.552 342.439 243.552 344.663C243.552 346.888 241.748 348.692 239.524 348.692C237.324 348.692 235.495 346.888 235.495 344.663Z" fill="url(#paint12_linear)"/>
<path d="M240.216 297.83H238.881V342.315H240.216V297.83Z" fill="url(#paint13_linear)"/>
<path d="M3.72607 108.94C3.72607 106.715 5.5302 104.911 7.75447 104.911C9.97875 104.911 11.7829 106.715 11.7829 108.94C11.7829 111.164 9.97875 112.968 7.75447 112.968C5.5302 112.968 3.72607 111.164 3.72607 108.94Z" fill="url(#paint14_linear)"/>
<path d="M8.44651 62.1064H7.11194V106.592H8.44651V62.1064Z" fill="url(#paint15_linear)"/>
<path d="M133.97 47.3026C133.97 45.0783 135.774 43.2742 137.998 43.2742C140.222 43.2742 142.027 45.0783 142.027 47.3026C142.027 49.5269 140.222 51.331 137.998 51.331C135.799 51.3557 133.97 49.5269 133.97 47.3026Z" fill="url(#paint16_linear)"/>
<path d="M138.69 0.493988H137.356V44.9795H138.69V0.493988Z" fill="url(#paint17_linear)"/>
<path d="M77.918 372.862C77.918 370.638 79.7222 368.834 81.9464 368.834C84.1707 368.834 85.9748 370.638 85.9748 372.862C85.9748 375.086 84.1707 376.89 81.9464 376.89C79.7222 376.89 77.918 375.086 77.918 372.862Z" fill="url(#paint18_linear)"/>
<path d="M82.6137 281.543H81.2791V370.539H82.6137V281.543Z" fill="url(#paint19_linear)"/>
<path d="M193.852 325.633C193.852 323.409 195.656 321.605 197.88 321.605C200.105 321.605 201.909 323.409 201.909 325.633C201.909 327.858 200.105 329.662 197.88 329.662C195.656 329.686 193.852 327.882 193.852 325.633Z" fill="url(#paint20_linear)"/>
<path d="M198.548 234.339H197.213V323.335H198.548V234.339Z" fill="url(#paint21_linear)"/>
<path d="M-0.302307 549.815C-0.302307 547.591 1.50183 545.787 3.7261 545.787C5.95038 545.787 7.7545 547.591 7.7545 549.815C7.7545 552.04 5.95038 553.844 3.7261 553.844C1.50183 553.869 -0.302307 552.04 -0.302307 549.815Z" fill="url(#paint22_linear)"/>
<path d="M4.3934 240.468H3.05884V547.492H4.3934V240.468Z" fill="url(#paint23_linear)"/>
<path d="M170.522 374.024C170.522 371.8 172.326 369.995 174.55 369.995C176.775 369.995 178.579 371.8 178.579 374.024C178.579 376.248 176.775 378.052 174.55 378.052C172.326 378.052 170.522 376.248 170.522 374.024Z" fill="url(#paint24_linear)"/>
<path d="M175.218 64.6766H173.883V371.701H175.218V64.6766Z" fill="url(#paint25_linear)"/>
<path d="M62.0021 464.008C62.0021 461.784 63.8062 459.98 66.0305 459.98C68.2547 459.98 70.0589 461.784 70.0589 464.008C70.0589 466.232 68.2547 468.036 66.0305 468.036C63.8062 468.061 62.0021 466.232 62.0021 464.008Z" fill="url(#paint26_linear)"/>
<path d="M66.7225 154.686H65.3879V461.71H66.7225V154.686Z" fill="url(#paint27_linear)"/>
<path d="M147.291 225.862C147.291 223.638 149.095 221.834 151.319 221.834C153.543 221.834 155.347 223.638 155.347 225.862C155.347 228.087 153.543 229.891 151.319 229.891C149.095 229.916 147.291 228.111 147.291 225.862Z" fill="url(#paint28_linear)"/>
<path d="M152.011 53.6788H150.676V223.539H152.011V53.6788Z" fill="url(#paint29_linear)"/>
<path d="M1290.43 380.722C1290.43 378.497 1292.24 376.693 1294.46 376.693C1296.69 376.693 1298.49 378.497 1298.49 380.722C1298.49 382.946 1296.69 384.75 1294.46 384.75C1292.24 384.775 1290.43 382.946 1290.43 380.722Z" fill="url(#paint30_linear)"/>
<path d="M1295.13 316.366H1293.79V378.423H1295.13V316.366Z" fill="url(#paint31_linear)"/>
<path d="M1186.51 290.614C1186.51 288.389 1188.31 286.585 1190.54 286.585C1192.76 286.585 1194.57 288.389 1194.57 290.614C1194.57 292.838 1192.76 294.642 1190.54 294.642C1188.31 294.642 1186.51 292.838 1186.51 290.614Z" fill="url(#paint32_linear)"/>
<path d="M1191.21 127.673H1189.87V288.291H1191.21V127.673Z" fill="url(#paint33_linear)"/>
<path d="M1140.57 151.745C1140.57 149.521 1142.37 147.717 1144.59 147.717C1146.82 147.717 1148.62 149.521 1148.62 151.745C1148.62 153.969 1146.82 155.773 1144.59 155.773C1142.4 155.798 1140.57 153.994 1140.57 151.745Z" fill="url(#paint34_linear)"/>
<path d="M1145.29 60.4508H1143.95V149.446H1145.29V60.4508Z" fill="url(#paint35_linear)"/>
<path d="M1265.3 221.884C1265.3 219.659 1267.1 217.855 1269.33 217.855C1271.55 217.855 1273.36 219.659 1273.36 221.884C1273.36 224.108 1271.55 225.912 1269.33 225.912C1267.1 225.937 1265.3 224.108 1265.3 221.884Z" fill="url(#paint36_linear)"/>
<path d="M1269.99 130.59H1268.66V219.585H1269.99V130.59Z" fill="url(#paint37_linear)"/>
<path d="M1428.12 191.807C1428.12 189.582 1429.92 187.778 1432.14 187.778C1434.37 187.778 1436.17 189.582 1436.17 191.807C1436.17 194.031 1434.37 195.835 1432.14 195.835C1429.92 195.86 1428.12 194.055 1428.12 191.807Z" fill="url(#paint38_linear)"/>
<path d="M1432.84 100.512H1431.5V189.483H1432.84V100.512Z" fill="url(#paint39_linear)"/>
<path d="M1392.82 228.903C1392.82 226.678 1394.63 224.874 1396.85 224.874C1399.08 224.874 1400.88 226.678 1400.88 228.903C1400.88 231.127 1399.08 232.931 1396.85 232.931C1394.63 232.931 1392.82 231.127 1392.82 228.903Z" fill="url(#paint40_linear)"/>
<path d="M1397.54 137.608H1396.21V226.604H1397.54V137.608Z" fill="url(#paint41_linear)"/>
<path d="M1253.46 296.273C1253.46 294.049 1255.26 292.245 1257.49 292.245C1259.71 292.245 1261.52 294.049 1261.52 296.273C1261.52 298.498 1259.71 300.302 1257.49 300.302C1255.26 300.326 1253.46 298.498 1253.46 296.273Z" fill="url(#paint42_linear)"/>
<path d="M1258.18 127.055H1256.85V293.95H1258.18V127.055Z" fill="url(#paint43_linear)"/>
<path d="M1276.91 265.677C1276.91 263.453 1278.72 261.649 1280.94 261.649C1283.17 261.649 1284.97 263.453 1284.97 265.677C1284.97 267.901 1283.17 269.706 1280.94 269.706C1278.72 269.706 1276.91 267.901 1276.91 265.677Z" fill="url(#paint44_linear)"/>
<path d="M1281.63 130.12H1280.3V263.354H1281.63V130.12Z" fill="url(#paint45_linear)"/>
<path d="M1219.43 442.655C1219.43 440.431 1221.23 438.627 1223.46 438.627C1225.68 438.627 1227.49 440.431 1227.49 442.655C1227.49 444.879 1225.68 446.684 1223.46 446.684C1221.26 446.684 1219.43 444.879 1219.43 442.655Z" fill="url(#paint46_linear)"/>
<path d="M1224.15 133.308H1222.82V440.332H1224.15V133.308Z" fill="url(#paint47_linear)"/>
<path d="M1336.95 309.347C1336.95 307.123 1338.75 305.319 1340.97 305.319C1343.2 305.319 1345 307.123 1345 309.347C1345 311.571 1343.2 313.375 1340.97 313.375C1338.75 313.375 1336.95 311.571 1336.95 309.347Z" fill="url(#paint48_linear)"/>
<path d="M1341.67 0H1340.33V307.024H1341.67V0Z" fill="url(#paint49_linear)"/>
<path d="M1398.11 326.523C1398.11 324.299 1399.92 322.495 1402.14 322.495C1404.37 322.495 1406.17 324.299 1406.17 326.523C1406.17 328.748 1404.37 330.552 1402.14 330.552C1399.92 330.552 1398.11 328.748 1398.11 326.523Z" fill="url(#paint50_linear)"/>
<path d="M1402.81 17.1764H1401.47V324.2H1402.81V17.1764Z" fill="url(#paint51_linear)"/>
<path d="M1151.27 510.248C1151.27 508.024 1153.07 506.22 1155.3 506.22C1157.52 506.22 1159.32 508.024 1159.32 510.248C1159.32 512.473 1157.52 514.277 1155.3 514.277C1153.1 514.277 1151.27 512.473 1151.27 510.248Z" fill="url(#paint52_linear)"/>
<path d="M1155.99 200.901H1154.65V507.925H1155.99V200.901Z" fill="url(#paint53_linear)"/>
<path d="M1409.09 388.63C1409.09 386.406 1410.89 384.602 1413.11 384.602C1415.34 384.602 1417.14 386.406 1417.14 388.63C1417.14 390.854 1415.34 392.659 1413.11 392.659C1410.89 392.659 1409.09 390.854 1409.09 388.63Z" fill="url(#paint54_linear)"/>
<path d="M1413.81 79.2831H1412.47V386.307H1413.81V79.2831Z" fill="url(#paint55_linear)"/>
<path d="M1098.55 428.197C1098.55 425.973 1100.36 424.169 1102.58 424.169C1104.8 424.169 1106.61 425.973 1106.61 428.197C1106.61 430.422 1104.8 432.226 1102.58 432.226C1100.36 432.251 1098.55 430.446 1098.55 428.197Z" fill="url(#paint56_linear)"/>
<path d="M1103.25 256.014H1101.91V425.874H1103.25V256.014Z" fill="url(#paint57_linear)"/>
<path d="M1168 243.089C1168 240.864 1169.8 239.06 1172.03 239.06C1174.25 239.06 1176.06 240.864 1176.06 243.089C1176.06 245.313 1174.25 247.117 1172.03 247.117C1169.8 247.142 1168 245.338 1168 243.089Z" fill="url(#paint58_linear)"/>
<path d="M1172.72 117.763H1171.38V240.79H1172.72V117.763Z" fill="url(#paint59_linear)"/>
<path d="M1387.63 460.202C1387.63 457.978 1389.44 456.174 1391.66 456.174C1393.89 456.174 1395.69 457.978 1395.69 460.202C1395.69 462.427 1393.89 464.231 1391.66 464.231C1389.44 464.231 1387.63 462.427 1387.63 460.202Z" fill="url(#paint60_linear)"/>
<path d="M1392.35 287.994H1391.02V457.855H1392.35V287.994Z" fill="url(#paint61_linear)"/>
</g>
<defs>
<linearGradient id="paint0_linear" x1="163.224" y1="315.457" x2="163.224" y2="245.437" gradientUnits="userSpaceOnUse">
<stop stop-color="#A4FFFF"/>
<stop offset="1" stop-color="#A4FFFF" stop-opacity="0"/>
</linearGradient>
<linearGradient id="paint1_linear" x1="163.226" y1="315.456" x2="163.226" y2="245.438" gradientUnits="userSpaceOnUse">
<stop stop-color="#A4FFFF"/>
<stop offset="1" stop-color="#A4FFFF" stop-opacity="0"/>
</linearGradient>
<linearGradient id="paint2_linear" x1="30.557" y1="111.226" x2="30.557" y2="41.2065" gradientUnits="userSpaceOnUse">
<stop stop-color="#A4FFFF"/>
<stop offset="1" stop-color="#A4FFFF" stop-opacity="0"/>
</linearGradient>
<linearGradient id="paint3_linear" x1="30.5568" y1="111.225" x2="30.5568" y2="41.2073" gradientUnits="userSpaceOnUse">
<stop stop-color="#A4FFFF"/>
<stop offset="1" stop-color="#A4FFFF" stop-opacity="0"/>
</linearGradient>
<linearGradient id="paint4_linear" x1="70.7946" y1="131.676" x2="70.7946" y2="61.6535" gradientUnits="userSpaceOnUse">
<stop stop-color="#A4FFFF"/>
<stop offset="1" stop-color="#A4FFFF" stop-opacity="0"/>
</linearGradient>
<linearGradient id="paint5_linear" x1="70.7946" y1="131.676" x2="70.7946" y2="61.6568" gradientUnits="userSpaceOnUse">
<stop stop-color="#A4FFFF"/>
<stop offset="1" stop-color="#A4FFFF" stop-opacity="0"/>
</linearGradient>
<linearGradient id="paint6_linear" x1="136.431" y1="361.411" x2="136.431" y2="291.41" gradientUnits="userSpaceOnUse">
<stop stop-color="#A4FFFF"/>
<stop offset="1" stop-color="#A4FFFF" stop-opacity="0"/>
</linearGradient>
<linearGradient id="paint7_linear" x1="136.432" y1="361.404" x2="136.432" y2="291.386" gradientUnits="userSpaceOnUse">
<stop stop-color="#A4FFFF"/>
<stop offset="1" stop-color="#A4FFFF" stop-opacity="0"/>
</linearGradient>
<linearGradient id="paint8_linear" x1="198.771" y1="102.282" x2="198.771" y2="32.2625" gradientUnits="userSpaceOnUse">
<stop stop-color="#A4FFFF"/>
<stop offset="1" stop-color="#A4FFFF" stop-opacity="0"/>
</linearGradient>
<linearGradient id="paint9_linear" x1="198.77" y1="102.281" x2="198.77" y2="32.263" gradientUnits="userSpaceOnUse">
<stop stop-color="#A4FFFF"/>
<stop offset="1" stop-color="#A4FFFF" stop-opacity="0"/>
</linearGradient>
<linearGradient id="paint10_linear" x1="87.5926" y1="98.3314" x2="87.5926" y2="28.3118" gradientUnits="userSpaceOnUse">
<stop stop-color="#A4FFFF"/>
<stop offset="1" stop-color="#A4FFFF" stop-opacity="0"/>
</linearGradient>
<linearGradient id="paint11_linear" x1="87.5939" y1="108.507" x2="87.5939" y2="73.4979" gradientUnits="userSpaceOnUse">
<stop stop-color="#A4FFFF"/>
<stop offset="1" stop-color="#A4FFFF" stop-opacity="0"/>
</linearGradient>
<linearGradient id="paint12_linear" x1="239.542" y1="321.981" x2="239.542" y2="251.961" gradientUnits="userSpaceOnUse">
<stop stop-color="#A4FFFF"/>
<stop offset="1" stop-color="#A4FFFF" stop-opacity="0"/>
</linearGradient>
<linearGradient id="paint13_linear" x1="239.542" y1="332.157" x2="239.542" y2="297.148" gradientUnits="userSpaceOnUse">
<stop stop-color="#A4FFFF"/>
<stop offset="1" stop-color="#A4FFFF" stop-opacity="0"/>
</linearGradient>
<linearGradient id="paint14_linear" x1="7.77104" y1="86.2509" x2="7.77104" y2="16.2097" gradientUnits="userSpaceOnUse">
<stop stop-color="#A4FFFF"/>
<stop offset="1" stop-color="#A4FFFF" stop-opacity="0"/>
</linearGradient>
<linearGradient id="paint15_linear" x1="7.77107" y1="96.4351" x2="7.77107" y2="61.4255" gradientUnits="userSpaceOnUse">
<stop stop-color="#A4FFFF"/>
<stop offset="1" stop-color="#A4FFFF" stop-opacity="0"/>
</linearGradient>
<linearGradient id="paint16_linear" x1="138.018" y1="24.6352" x2="138.018" y2="-45.3847" gradientUnits="userSpaceOnUse">
<stop stop-color="#A4FFFF"/>
<stop offset="1" stop-color="#A4FFFF" stop-opacity="0"/>
</linearGradient>
<linearGradient id="paint17_linear" x1="138.02" y1="34.8103" x2="138.02" y2="-0.195785" gradientUnits="userSpaceOnUse">
<stop stop-color="#A4FFFF"/>
<stop offset="1" stop-color="#A4FFFF" stop-opacity="0"/>
</linearGradient>
<linearGradient id="paint18_linear" x1="81.9571" y1="350.188" x2="81.9571" y2="280.168" gradientUnits="userSpaceOnUse">
<stop stop-color="#A4FFFF"/>
<stop offset="1" stop-color="#A4FFFF" stop-opacity="0"/>
</linearGradient>
<linearGradient id="paint19_linear" x1="81.9558" y1="350.188" x2="81.9558" y2="280.168" gradientUnits="userSpaceOnUse">
<stop stop-color="#A4FFFF"/>
<stop offset="1" stop-color="#A4FFFF" stop-opacity="0"/>
</linearGradient>
<linearGradient id="paint20_linear" x1="197.887" y1="302.964" x2="197.887" y2="232.923" gradientUnits="userSpaceOnUse">
<stop stop-color="#A4FFFF"/>
<stop offset="1" stop-color="#A4FFFF" stop-opacity="0"/>
</linearGradient>
<linearGradient id="paint21_linear" x1="197.888" y1="302.97" x2="197.888" y2="232.952" gradientUnits="userSpaceOnUse">
<stop stop-color="#A4FFFF"/>
<stop offset="1" stop-color="#A4FFFF" stop-opacity="0"/>
</linearGradient>
<linearGradient id="paint22_linear" x1="3.7345" y1="510.33" x2="3.7345" y2="385.631" gradientUnits="userSpaceOnUse">
<stop stop-color="#A4FFFF"/>
<stop offset="1" stop-color="#A4FFFF" stop-opacity="0"/>
</linearGradient>
<linearGradient id="paint23_linear" x1="3.73576" y1="479.128" x2="3.73576" y2="249.739" gradientUnits="userSpaceOnUse">
<stop stop-color="#A4FFFF"/>
<stop offset="1" stop-color="#A4FFFF" stop-opacity="0"/>
</linearGradient>
<linearGradient id="paint24_linear" x1="174.548" y1="334.534" x2="174.548" y2="209.835" gradientUnits="userSpaceOnUse">
<stop stop-color="#A4FFFF"/>
<stop offset="1" stop-color="#A4FFFF" stop-opacity="0"/>
</linearGradient>
<linearGradient id="paint25_linear" x1="174.55" y1="303.331" x2="174.55" y2="73.9432" gradientUnits="userSpaceOnUse">
<stop stop-color="#A4FFFF"/>
<stop offset="1" stop-color="#A4FFFF" stop-opacity="0"/>
</linearGradient>
<linearGradient id="paint26_linear" x1="66.0448" y1="424.523" x2="66.0448" y2="299.825" gradientUnits="userSpaceOnUse">
<stop stop-color="#A4FFFF"/>
<stop offset="1" stop-color="#A4FFFF" stop-opacity="0"/>
</linearGradient>
<linearGradient id="paint27_linear" x1="66.0461" y1="393.319" x2="66.0461" y2="163.932" gradientUnits="userSpaceOnUse">
<stop stop-color="#A4FFFF"/>
<stop offset="1" stop-color="#A4FFFF" stop-opacity="0"/>
</linearGradient>
<linearGradient id="paint28_linear" x1="151.33" y1="186.369" x2="151.33" y2="61.632" gradientUnits="userSpaceOnUse">
<stop stop-color="#A4FFFF"/>
<stop offset="1" stop-color="#A4FFFF" stop-opacity="0"/>
</linearGradient>
<linearGradient id="paint29_linear" x1="151.33" y1="185.724" x2="151.33" y2="58.8085" gradientUnits="userSpaceOnUse">
<stop stop-color="#A4FFFF"/>
<stop offset="1" stop-color="#A4FFFF" stop-opacity="0"/>
</linearGradient>
<linearGradient id="paint30_linear" x1="1294.46" y1="358.066" x2="1294.46" y2="288.068" gradientUnits="userSpaceOnUse">
<stop stop-color="#A4FFFF"/>
<stop offset="1" stop-color="#A4FFFF" stop-opacity="0"/>
</linearGradient>
<linearGradient id="paint31_linear" x1="1294.46" y1="364.217" x2="1294.46" y2="315.388" gradientUnits="userSpaceOnUse">
<stop stop-color="#A4FFFF"/>
<stop offset="1" stop-color="#A4FFFF" stop-opacity="0"/>
</linearGradient>
<linearGradient id="paint32_linear" x1="1190.54" y1="267.943" x2="1190.54" y2="197.923" gradientUnits="userSpaceOnUse">
<stop stop-color="#A4FFFF"/>
<stop offset="1" stop-color="#A4FFFF" stop-opacity="0"/>
</linearGradient>
<linearGradient id="paint33_linear" x1="1190.54" y1="251.561" x2="1190.54" y2="125.179" gradientUnits="userSpaceOnUse">
<stop stop-color="#A4FFFF"/>
<stop offset="1" stop-color="#A4FFFF" stop-opacity="0"/>
</linearGradient>
<linearGradient id="paint34_linear" x1="1144.61" y1="129.083" x2="1144.61" y2="59.063" gradientUnits="userSpaceOnUse">
<stop stop-color="#A4FFFF"/>
<stop offset="1" stop-color="#A4FFFF" stop-opacity="0"/>
</linearGradient>
<linearGradient id="paint35_linear" x1="1144.61" y1="129.083" x2="1144.61" y2="59.0636" gradientUnits="userSpaceOnUse">
<stop stop-color="#A4FFFF"/>
<stop offset="1" stop-color="#A4FFFF" stop-opacity="0"/>
</linearGradient>
<linearGradient id="paint36_linear" x1="1269.32" y1="199.207" x2="1269.32" y2="129.166" gradientUnits="userSpaceOnUse">
<stop stop-color="#A4FFFF"/>
<stop offset="1" stop-color="#A4FFFF" stop-opacity="0"/>
</linearGradient>
<linearGradient id="paint37_linear" x1="1269.32" y1="199.213" x2="1269.32" y2="129.194" gradientUnits="userSpaceOnUse">
<stop stop-color="#A4FFFF"/>
<stop offset="1" stop-color="#A4FFFF" stop-opacity="0"/>
</linearGradient>
<linearGradient id="paint38_linear" x1="1432.16" y1="169.146" x2="1432.16" y2="99.1259" gradientUnits="userSpaceOnUse">
<stop stop-color="#A4FFFF"/>
<stop offset="1" stop-color="#A4FFFF" stop-opacity="0"/>
</linearGradient>
<linearGradient id="paint39_linear" x1="1432.16" y1="169.144" x2="1432.16" y2="99.1262" gradientUnits="userSpaceOnUse">
<stop stop-color="#A4FFFF"/>
<stop offset="1" stop-color="#A4FFFF" stop-opacity="0"/>
</linearGradient>
<linearGradient id="paint40_linear" x1="1396.87" y1="206.234" x2="1396.87" y2="136.214" gradientUnits="userSpaceOnUse">
<stop stop-color="#A4FFFF"/>
<stop offset="1" stop-color="#A4FFFF" stop-opacity="0"/>
</linearGradient>
<linearGradient id="paint41_linear" x1="1396.87" y1="206.234" x2="1396.87" y2="136.215" gradientUnits="userSpaceOnUse">
<stop stop-color="#A4FFFF"/>
<stop offset="1" stop-color="#A4FFFF" stop-opacity="0"/>
</linearGradient>
<linearGradient id="paint42_linear" x1="1257.5" y1="256.788" x2="1257.5" y2="132.089" gradientUnits="userSpaceOnUse">
<stop stop-color="#A4FFFF"/>
<stop offset="1" stop-color="#A4FFFF" stop-opacity="0"/>
</linearGradient>
<linearGradient id="paint43_linear" x1="1257.5" y1="256.79" x2="1257.5" y2="132.092" gradientUnits="userSpaceOnUse">
<stop stop-color="#A4FFFF"/>
<stop offset="1" stop-color="#A4FFFF" stop-opacity="0"/>
</linearGradient>
<linearGradient id="paint44_linear" x1="1280.96" y1="226.18" x2="1280.96" y2="101.481" gradientUnits="userSpaceOnUse">
<stop stop-color="#A4FFFF"/>
<stop offset="1" stop-color="#A4FFFF" stop-opacity="0"/>
</linearGradient>
<linearGradient id="paint45_linear" x1="1280.96" y1="233.675" x2="1280.96" y2="134.127" gradientUnits="userSpaceOnUse">
<stop stop-color="#A4FFFF"/>
<stop offset="1" stop-color="#A4FFFF" stop-opacity="0"/>
</linearGradient>
<linearGradient id="paint46_linear" x1="1223.48" y1="403.166" x2="1223.48" y2="278.467" gradientUnits="userSpaceOnUse">
<stop stop-color="#A4FFFF"/>
<stop offset="1" stop-color="#A4FFFF" stop-opacity="0"/>
</linearGradient>
<linearGradient id="paint47_linear" x1="1223.48" y1="371.961" x2="1223.48" y2="142.573" gradientUnits="userSpaceOnUse">
<stop stop-color="#A4FFFF"/>
<stop offset="1" stop-color="#A4FFFF" stop-opacity="0"/>
</linearGradient>
<linearGradient id="paint48_linear" x1="1340.98" y1="269.841" x2="1340.98" y2="145.104" gradientUnits="userSpaceOnUse">
<stop stop-color="#A4FFFF"/>
<stop offset="1" stop-color="#A4FFFF" stop-opacity="0"/>
</linearGradient>
<linearGradient id="paint49_linear" x1="1340.98" y1="238.647" x2="1340.98" y2="9.25916" gradientUnits="userSpaceOnUse">
<stop stop-color="#A4FFFF"/>
<stop offset="1" stop-color="#A4FFFF" stop-opacity="0"/>
</linearGradient>
<linearGradient id="paint50_linear" x1="1402.14" y1="287.022" x2="1402.14" y2="162.288" gradientUnits="userSpaceOnUse">
<stop stop-color="#A4FFFF"/>
<stop offset="1" stop-color="#A4FFFF" stop-opacity="0"/>
</linearGradient>
<linearGradient id="paint51_linear" x1="1402.14" y1="255.831" x2="1402.14" y2="26.441" gradientUnits="userSpaceOnUse">
<stop stop-color="#A4FFFF"/>
<stop offset="1" stop-color="#A4FFFF" stop-opacity="0"/>
</linearGradient>
<linearGradient id="paint52_linear" x1="1155.31" y1="470.758" x2="1155.31" y2="346.06" gradientUnits="userSpaceOnUse">
<stop stop-color="#A4FFFF"/>
<stop offset="1" stop-color="#A4FFFF" stop-opacity="0"/>
</linearGradient>
<linearGradient id="paint53_linear" x1="1155.31" y1="439.554" x2="1155.31" y2="210.168" gradientUnits="userSpaceOnUse">
<stop stop-color="#A4FFFF"/>
<stop offset="1" stop-color="#A4FFFF" stop-opacity="0"/>
</linearGradient>
<linearGradient id="paint54_linear" x1="1413.13" y1="349.146" x2="1413.13" y2="224.485" gradientUnits="userSpaceOnUse">
<stop stop-color="#A4FFFF"/>
<stop offset="1" stop-color="#A4FFFF" stop-opacity="0"/>
</linearGradient>
<linearGradient id="paint55_linear" x1="1413.13" y1="317.93" x2="1413.13" y2="88.5425" gradientUnits="userSpaceOnUse">
<stop stop-color="#A4FFFF"/>
<stop offset="1" stop-color="#A4FFFF" stop-opacity="0"/>
</linearGradient>
<linearGradient id="paint56_linear" x1="1102.58" y1="388.719" x2="1102.58" y2="264.02" gradientUnits="userSpaceOnUse">
<stop stop-color="#A4FFFF"/>
<stop offset="1" stop-color="#A4FFFF" stop-opacity="0"/>
</linearGradient>
<linearGradient id="paint57_linear" x1="1102.58" y1="388.058" x2="1102.58" y2="261.146" gradientUnits="userSpaceOnUse">
<stop stop-color="#A4FFFF"/>
<stop offset="1" stop-color="#A4FFFF" stop-opacity="0"/>
</linearGradient>
<linearGradient id="paint58_linear" x1="1172.04" y1="203.61" x2="1172.04" y2="78.9117" gradientUnits="userSpaceOnUse">
<stop stop-color="#A4FFFF"/>
<stop offset="1" stop-color="#A4FFFF" stop-opacity="0"/>
</linearGradient>
<linearGradient id="paint59_linear" x1="1172.05" y1="213.385" x2="1172.05" y2="121.474" gradientUnits="userSpaceOnUse">
<stop stop-color="#A4FFFF"/>
<stop offset="1" stop-color="#A4FFFF" stop-opacity="0"/>
</linearGradient>
<linearGradient id="paint60_linear" x1="1391.68" y1="420.716" x2="1391.68" y2="296.055" gradientUnits="userSpaceOnUse">
<stop stop-color="#A4FFFF"/>
<stop offset="1" stop-color="#A4FFFF" stop-opacity="0"/>
</linearGradient>
<linearGradient id="paint61_linear" x1="1391.68" y1="420.044" x2="1391.68" y2="293.129" gradientUnits="userSpaceOnUse">
<stop stop-color="#A4FFFF"/>
<stop offset="1" stop-color="#A4FFFF" stop-opacity="0"/>
</linearGradient>
<clipPath id="clip0">
<rect width="1537" height="572" fill="white" transform="translate(-50)"/>
</clipPath>
</defs>
</svg>
